<svg t="1564712049692" class="icon" viewBox="0 0 1024 1024" version="1.1" xmlns="http://www.w3.org/2000/svg" p-id="21495" width="200" height="200"><path d="M320 287.104c0-105.888 86.112-191.968 192-191.968s192 86.08 192 191.968c0 105.952-86.112 192.032-192 192.032s-192-86.112-192-192.032M802.944 901.824h-197.888c-42.176 0-77.824-32.384-77.824-70.688s35.616-70.688 77.824-70.688h197.888c42.176 0 77.824 32.384 77.824 70.688s-35.648 70.688-77.824 70.688" fill="#D9FAFF" p-id="21496"></path><path d="M192.096 822.752c3.744-156.224 113.472-311.616 319.904-311.616 120.352 0 207.552 52.992 260.352 128h21.216c19.904 0 39.136 2.976 57.216 8.256-41.568-80-111.2-147.136-207.2-179.392A223.68 223.68 0 0 0 736 287.104c0-123.456-100.512-223.968-224-223.968s-224 100.48-224 223.968a223.616 223.616 0 0 0 92.416 180.864C215.68 523.392 128 680.96 128 831.04c0 3.744 0.672 7.424 1.952 10.976 6.752 18.592 54.464 107.392 336.192 116.288a189.632 189.632 0 0 1-39.552-65.856c-176.064-11.616-224.768-58.016-234.496-69.696M352 287.104c0-88.224 71.776-159.968 160-159.968s160 71.744 160 159.968c0 88.288-71.776 160.032-160 160.032s-160-71.776-160-160.032" fill="#40D1E7" p-id="21497"></path><path d="M709.952 616.608c-33.216-31.392-73.472-53.088-119.616-64.448a32 32 0 1 0-15.2 62.208c21.536 5.248 41.056 13.76 58.944 24.736h85.856a32 32 0 0 0-9.984-22.496M793.568 703.136h-179.136c-73.952 0-134.432 57.696-134.432 128 0 70.336 60.512 128 134.432 128h179.136c73.952 0 134.432-57.664 134.432-128s-60.512-128-134.432-128m0 192h-179.136c-38.176 0-70.432-29.312-70.432-64s32.256-64 70.432-64h179.136c38.176 0 70.432 29.312 70.432 64s-32.256 64-70.432 64" fill="#40D1E7" p-id="21498"></path></svg>