<svg t="1581585481962" class="icon" viewBox="0 0 1024 1024" version="1.1" xmlns="http://www.w3.org/2000/svg" p-id="1089" width="200" height="200"><path d="M238.933333 238.933333v170.666667h170.666667V238.933333H238.933333zM204.8 170.666667h238.933333a34.133333 34.133333 0 0 1 34.133334 34.133333v273.066667H204.8a34.133333 34.133333 0 0 1-34.133333-34.133334V204.8a34.133333 34.133333 0 0 1 34.133333-34.133333z m34.133333 614.4h170.666667v-170.666667H238.933333v170.666667z m-34.133333 68.266666a34.133333 34.133333 0 0 1-34.133333-34.133333v-238.933333a34.133333 34.133333 0 0 1 34.133333-34.133334h273.066667v273.066667a34.133333 34.133333 0 0 1-34.133334 34.133333H204.8zM785.066667 238.933333h-170.666667v170.666667h170.666667V238.933333z m34.133333-68.266666a34.133333 34.133333 0 0 1 34.133333 34.133333v238.933333a34.133333 34.133333 0 0 1-34.133333 34.133334h-273.066667V204.8a34.133333 34.133333 0 0 1 34.133334-34.133333h238.933333z m-119.466667 614.4a85.333333 85.333333 0 1 0 0-170.666667 85.333333 85.333333 0 0 0 0 170.666667z m0 68.266666a153.6 153.6 0 1 1 0-307.2 153.6 153.6 0 0 1 0 307.2z" p-id="1090"></path></svg>