<?xml version="1.0" standalone="no"?><!DOCTYPE svg PUBLIC "-//W3C//DTD SVG 1.1//EN" "http://www.w3.org/Graphics/SVG/1.1/DTD/svg11.dtd"><svg t="1564647941100" class="icon" viewBox="0 0 1024 1024" version="1.1" xmlns="http://www.w3.org/2000/svg" p-id="3740" xmlns:xlink="http://www.w3.org/1999/xlink" width="200" height="200"><defs><style type="text/css"></style></defs><path d="M130.004 350.099h96.725c17.6 0 32 14.4 32 32v541.595c0 17.6-14.4 32-32 32h-96.725c-17.6 0-32-14.4-32-32V382.099c0-17.6 14.4-32 32-32zM895.489 352.976H698.072c-22.814 0-39.177-21.992-32.622-43.844l22.239-74.131c0.513-1.709 0.903-3.46 1.136-5.229 18.281-138.558-94.7-184.272-120.91-158.065-20.091 20.092-37.203 42.409-40.181 60.274-9.541 57.246-41.748 132.546-77.139 202.36-5.799 11.439-17.546 18.635-30.371 18.635h-59.338c-18.732 0-34.058 15.326-34.058 34.058v534.602c0 18.732 15.326 34.058 34.058 34.058h534.603c18.732 0 34.058-15.326 34.058-34.058V387.034c0-18.732-15.326-34.058-34.058-34.058z" p-id="3741"></path></svg>