<svg t="1573195969154" class="icon" viewBox="0 0 1024 1024" version="1.1" xmlns="http://www.w3.org/2000/svg" p-id="4195" width="200" height="200"><path d="M552.850383 596.024695c-15.789615 0-28.580942 5.730515-38.373982 17.188474-9.79304 11.458983-14.68956 26.482141-14.68956 45.069475 0 18.721387 4.779863 33.727149 14.340613 45.019333 9.559727 11.292184 22.034852 16.938788 37.424354 16.938788 16.522302 0 29.495778-5.412266 38.923498-16.238846 9.426697-10.825556 14.140045-25.965371 14.140045-45.419446 0-19.986193-4.614088-35.409464-13.840216-46.26879C581.546959 601.455381 568.905034 596.024695 552.850383 596.024695z" p-id="4196"></path><path d="M656.616702 227.997738c0 0 45.035706 183.889147-22.416546 208.203926 0 0-216.003566-33.866319-22.854521-371.670951 0 0-55.876612 10.652618-88.86084 30.740118 0 0-272.855388 145.460929-179.603541 417.020812 0 0-85.74999 9.863648-94.263897-150.596903 0 0-171.180707 198.255343-77.880765 393.46635 0 0 109.561301 210.325239 343.077729 204.177216 0 0 354.638019-5.439896 374.080837-325.223083C887.894136 634.114199 887.961674 324.564074 656.616702 227.997738zM448.821075 735.430722l-19.986193 0 0-69.752644-78.347392 0 0 69.752644L330.501296 735.430722l0-154.795529 19.986193 0 0 67.254753 78.347392 0 0-67.254753 19.986193 0L448.821075 735.430722zM605.514837 715.943902c-13.4575 14.724353-31.445176 22.084994-53.963029 22.084994-21.98471 0-39.607066-7.227612-52.863998-21.684882-13.257955-14.456247-19.886933-33.277918-19.886933-56.461943 0-24.982998 6.760984-44.86993 20.286022-59.659775 13.524015-14.789844 31.844266-22.185278 54.962799-22.185278 21.518083 0 38.839587 7.228635 51.964512 21.684882 13.123902 14.45727 19.686365 33.277918 19.686365 56.461943C625.700575 681.300894 618.971313 701.220572 605.514837 715.943902zM739.224118 598.423325l-44.669362 0 0 137.007397-20.086477 0L674.468279 598.423325l-44.469817 0 0-17.788132 109.225657 0L739.224118 598.423325z" p-id="4197"></path></svg>