<svg t="1573196046937" class="icon" viewBox="0 0 1024 1024" version="1.1" xmlns="http://www.w3.org/2000/svg" p-id="4919" width="200" height="200"><path d="M448 262.4l-132.8-155.2h-150.4l132.8 155.2H448z m390.4 0l-132.8-155.2h-150.4l132.8 155.2h150.4z m-195.2 0l-132.8-155.2h-150.4l132.8 155.2h150.4z m251.2-155.2h-144l132.8 155.2h70.4v-97.6c-1.6-32-25.6-57.6-59.2-57.6z m-772.8 0h-6.4c-33.6 0-59.2 25.6-59.2 59.2v97.6h196.8L121.6 107.2zM56 873.6c0 33.6 25.6 59.2 59.2 59.2h779.2c33.6 0 59.2-25.6 59.2-59.2V302.4h-896v571.2zM368 460.8c0-33.6 27.2-48 59.2-48 9.6 0 20.8 1.6 30.4 8l222.4 128c38.4 20.8 38.4 75.2 0 97.6l-222.4 128c-9.6 6.4-19.2 8-30.4 8-30.4 0-59.2-16-59.2-48V460.8z m0 0" p-id="4920"></path></svg>