<svg t="1568023453585" class="icon" viewBox="0 0 1027 1024" version="1.1" xmlns="http://www.w3.org/2000/svg" p-id="2021" width="200" height="200"><path d="M0 320.853333l3.413333-10.24c6.826667-23.893333 30.72-40.96 58.026667-44.373333 23.893333-3.413333 47.786667 13.653333 61.44 34.133333 10.24 23.893333 6.826667 51.2-10.24 71.68l-6.826667 6.826667c47.786667 30.72 95.573333 58.026667 143.36 85.333333 17.066667 10.24 34.133333 20.48 54.613334 34.133334 10.24 6.826667 17.066667 3.413333 23.893333-6.826667l163.84-296.96c-23.893333-13.653333-37.546667-30.72-40.96-58.026667 0-20.48 6.826667-34.133333 20.48-47.786666 27.306667-27.306667 71.68-23.893333 95.573333 6.826666 27.306667 34.133333 17.066667 71.68-23.893333 102.4 13.653333 23.893333 27.306667 51.2 40.96 78.506667 40.96 71.68 78.506667 143.36 116.053333 215.04 10.24 17.066667 13.653333 17.066667 30.72 6.826667 61.44-37.546667 122.88-75.093333 180.906667-112.64 3.413333-3.413333 6.826667-3.413333 10.24-6.826667-13.653333-13.653333-20.48-27.306667-20.48-44.373333-3.413333-34.133333 20.48-61.44 51.2-68.266667 34.133333-6.826667 64.853333 13.653333 71.68 44.373333 0 3.413333 3.413333 3.413333 3.413333 6.826667v23.893333c-10.24 34.133333-30.72 51.2-68.266666 51.2 0 3.413333-3.413333 6.826667-3.413334 10.24-34.133333 122.88-71.68 242.346667-105.813333 365.226667-3.413333 17.066667-10.24 20.48-27.306667 20.48H204.8c-17.066667 0-23.893333-3.413333-27.306667-20.48-27.306667-98.986667-58.026667-197.973333-85.333333-296.96-6.826667-27.306667-17.066667-54.613333-23.893333-81.92-27.306667 0-47.786667-10.24-61.44-34.133333-3.413333 0-3.413333-6.826667-6.826667-13.653334v-20.48z m512 535.893334h286.72c23.893333 0 44.373333 17.066667 47.786667 40.96s-13.653333 47.786667-37.546667 51.2H225.28c-20.48 0-40.96-13.653333-47.786667-34.133334s0-40.96 17.066667-54.613333c10.24-6.826667 20.48-10.24 30.72-10.24 95.573333 6.826667 191.146667 6.826667 286.72 6.826667z" p-id="2022"></path></svg><svg t="1568023453585" class="icon" viewBox="0 0 1027 1024" version="1.1" xmlns="http://www.w3.org/2000/svg" p-id="2021" width="200" height="200"><path d="M0 320.853333l3.413333-10.24c6.826667-23.893333 30.72-40.96 58.026667-44.373333 23.893333-3.413333 47.786667 13.653333 61.44 34.133333 10.24 23.893333 6.826667 51.2-10.24 71.68l-6.826667 6.826667c47.786667 30.72 95.573333 58.026667 143.36 85.333333 17.066667 10.24 34.133333 20.48 54.613334 34.133334 10.24 6.826667 17.066667 3.413333 23.893333-6.826667l163.84-296.96c-23.893333-13.653333-37.546667-30.72-40.96-58.026667 0-20.48 6.826667-34.133333 20.48-47.786666 27.306667-27.306667 71.68-23.893333 95.573333 6.826666 27.306667 34.133333 17.066667 71.68-23.893333 102.4 13.653333 23.893333 27.306667 51.2 40.96 78.506667 40.96 71.68 78.506667 143.36 116.053333 215.04 10.24 17.066667 13.653333 17.066667 30.72 6.826667 61.44-37.546667 122.88-75.093333 180.906667-112.64 3.413333-3.413333 6.826667-3.413333 10.24-6.826667-13.653333-13.653333-20.48-27.306667-20.48-44.373333-3.413333-34.133333 20.48-61.44 51.2-68.266667 34.133333-6.826667 64.853333 13.653333 71.68 44.373333 0 3.413333 3.413333 3.413333 3.413333 6.826667v23.893333c-10.24 34.133333-30.72 51.2-68.266666 51.2 0 3.413333-3.413333 6.826667-3.413334 10.24-34.133333 122.88-71.68 242.346667-105.813333 365.226667-3.413333 17.066667-10.24 20.48-27.306667 20.48H204.8c-17.066667 0-23.893333-3.413333-27.306667-20.48-27.306667-98.986667-58.026667-197.973333-85.333333-296.96-6.826667-27.306667-17.066667-54.613333-23.893333-81.92-27.306667 0-47.786667-10.24-61.44-34.133333-3.413333 0-3.413333-6.826667-6.826667-13.653334v-20.48z m512 535.893334h286.72c23.893333 0 44.373333 17.066667 47.786667 40.96s-13.653333 47.786667-37.546667 51.2H225.28c-20.48 0-40.96-13.653333-47.786667-34.133334s0-40.96 17.066667-54.613333c10.24-6.826667 20.48-10.24 30.72-10.24 95.573333 6.826667 191.146667 6.826667 286.72 6.826667z" p-id="2022"></path></svg>