<svg t="1576658559498" class="icon" viewBox="0 0 1024 1024" version="1.1" xmlns="http://www.w3.org/2000/svg" p-id="6730" width="200" height="200"><path d="M802.050875 587.880627c58.529084 0 93.23217 20.71826 135.186646 54.385433l1.035913-380.698028c0-19.16439-11.395043-49.205867-26.415781-64.744562l-167.29995-170.407689c-17.610521-16.574608-40.400607-25.897825-64.744562-26.415781h-567.162368c-41.954476 0-76.139605 34.185129-76.139605 75.621649v826.658574c0 41.43652 34.185129 75.621649 76.139605 75.621649h500.863936c-37.292868-41.43652-62.672736-81.31917-62.672737-143.991907 0-133.11482 112.914517-246.029337 251.208903-246.029338zM181.021031 185.428427h338.743551c14.502782-0.517956 26.415781 10.877086 26.415782 25.379868v1.55387c0 15.020738-11.395043 26.415781-26.415782 26.415781h-338.743551c-14.502782 0.517956-26.415781-10.877086-26.415781-25.379868v-1.035913c-0.517956-14.502782 10.877086-26.415781 25.379868-26.415782 0-0.517956 0.517956-0.517956 1.035913-0.517956z m0 151.761254h619.993931c15.020738 0 26.415781 11.395043 26.415781 26.415782 0 15.020738-11.395043 26.415781-26.415781 26.415781h-619.993931c-14.502782 0.517956-26.415781-10.877086-26.415781-25.379868v-1.035913c-0.517956-14.502782 10.877086-26.415781 25.379868-26.415782h1.035913z m-26.415781 178.177036c0-15.020738 11.395043-26.415781 26.415781-26.415781h452.693981c15.020738 0 26.415781 11.395043 26.415782 26.415781 0 15.020738-11.395043 26.415781-26.415782 26.415782h-452.693981c-14.502782 0.517956-26.415781-10.877086-26.415781-25.379869v-1.035913z" p-id="6731"></path><path d="M801.532918 644.337886h-4.143652c-103.5913-1.035913-189.054122 81.837127-190.090035 185.946383v3.625696c-1.035913 103.5913 82.355083 188.536166 185.946383 189.572079h4.143652c103.5913 1.035913 189.054122-81.837127 190.090036-185.946384v-4.143652c1.035913-103.073343-82.355083-188.018209-185.946384-189.054122z m90.642388 269.855336c0 19.682347-33.149216 19.682347-70.960041 19.682347h-42.472433c-39.88265 0-70.96004 0-70.96004-19.682347v-4.143652c0-37.810824 32.113303-68.370258 70.96004-68.370258h21.236217c-30.559433 0-55.421345-24.861912-55.421346-55.421345s24.861912-55.421345 55.421346-55.421346c30.559433 0 55.421345 24.861912 55.421345 55.421346 0 30.559433-24.861912 55.421345-55.421345 55.421345h21.236216c39.364694 0 70.96004 30.559433 70.960041 68.370258v4.143652z" p-id="6732"></path></svg>