<svg t="1568023471150" class="icon" viewBox="0 0 1025 1024" version="1.1" xmlns="http://www.w3.org/2000/svg" p-id="2146" width="200" height="200"><path d="M592.337 422.798c-30.466 12.672-58.391 29.57-83.782 50.694-25.39 21.125-47.341 45.267-65.858 72.428-18.516 27.161-32.855 56.887-43.008 89.178-10.156 32.289-15.233 66.242-15.233 101.85 0 31.387 4.033 61.409 12.096 90.081 8.063 28.668 19.265 55.682 33.604 81.027l-24.195 0c-17.321 0-37.481-0.599-60.48-1.807-22.995-1.207-46.739-2.871-71.232-4.982-24.491-2.11-48.837-4.529-73.027-7.238-24.195-2.715-46.146-5.586-65.858-8.604-19.716-3.013-36.441-6.032-50.179-9.055-13.741-3.009-22.402-6.032-25.982-9.05-6.572-4.83-11.498-19.765-14.787-44.81-3.283-25.051-1.942-57.193 4.032-96.418 2.385-15.091 7.321-27.47 14.782-37.123 7.471-9.66 16.579-17.953 27.334-24.894 10.749-6.944 22.699-12.525 35.843-16.751 13.139-4.225 26.58-8.299 40.322-12.225 13.735-3.923 27.027-8.148 39.865-12.677 12.848-4.526 24.643-10.106 35.397-16.746 12.542-7.849 22.253-15.543 29.121-23.087 6.868-7.543 11.804-14.935 14.787-22.18 2.987-7.238 4.478-14.787 4.478-22.635 0-7.847-0.297-16.594-0.898-26.253-1.195-13.881-5.97-24.893-14.335-33.041-8.364-8.147-17.618-16.452-27.775-24.898-4.779-4.225-9.108-10.111-12.994-17.659-3.881-7.539-7.316-15.234-10.303-23.082-2.987-9.055-5.97-18.404-8.957-28.069-4.183-1.202-8.365-3.317-12.547-6.336-3.585-3.013-7.466-7.238-11.648-12.672-4.183-5.433-7.762-13.281-10.75-23.543-2.987-10.258-4.187-19.612-3.585-28.059 0.598-8.452 2.385-16 5.373-22.636 2.395-6.64 6.271-12.982 11.653-19.012 0-22.935 1.19-45.87 3.58-68.805 2.39-19.318 6.572-40.137 12.547-62.469 5.974-22.336 15.233-42.253 27.775-59.755 11.949-16.903 24.793-30.63 38.529-41.193 13.742-10.562 28.076-18.86 43.013-24.893 14.932-6.042 29.713-10.111 44.349-12.226 14.635-2.115 28.82-3.17 42.556-3.17 17.327 0 34.499 1.963 51.524 5.885 17.025 3.926 33.007 9.202 47.939 15.842 14.937 6.64 28.222 14.185 39.875 22.636 11.643 8.451 20.757 16.898 27.324 25.349 15.534 19.313 26.881 40.589 34.051 63.823 7.169 23.239 12.25 45.419 15.228 66.547 2.992 24.138 4.483 48.585 4.483 73.33 4.183 3.019 7.466 6.941 9.856 11.769 2.39 4.227 4.332 9.66 5.825 16.295 1.495 6.64 1.646 14.788 0.451 24.447-1.195 13.282-3.735 23.691-7.617 31.235-3.886 7.543-8.215 13.428-12.999 17.653-5.373 4.825-11.046 8.148-17.021 9.959-1.195 3.617-2.39 7.549-3.58 11.764l-4.483 12.683c-1.195 4.222-2.691 8.746-4.479 13.581l0 0zM720.463 451.76c38.832 0 75.418 7.547 109.766 22.635 34.347 15.092 64.222 35.613 89.602 61.566 25.39 25.953 45.554 56.281 60.48 90.983 14.937 34.709 22.403 71.671 22.403 110.906 0 39.234-7.461 76.201-22.403 110.905-14.931 34.704-35.09 65.026-60.48 90.98-25.38 25.958-55.255 46.331-89.602 61.113-34.347 14.788-70.934 22.179-109.766 22.179-39.423 0-76.311-7.395-110.659-22.179-34.342-14.787-64.217-35.155-89.601-61.113-25.387-25.954-45.549-56.279-60.481-90.98-14.937-34.704-22.403-71.671-22.403-110.905 0-39.235 7.466-76.197 22.403-110.906 14.932-34.704 35.095-65.031 60.481-90.983 25.385-25.953 55.258-46.473 89.601-61.566 34.347-15.087 71.235-22.635 110.659-22.635l0 0zM885.333 681.718c3.589-12.064 1.942-23.082-4.926-33.046-6.869-9.959-15.977-17.05-27.329-21.275-11.347-4.222-22.699-4.526-34.051-0.903-11.347 3.622-19.706 12.977-25.084 28.064-2.987 10.263-5.823 19.769-8.514 28.525-2.686 8.746-5.378 17.948-8.064 27.609-2.686 9.658-5.969 20.068-9.855 31.239-3.882 11.161-8.812 23.99-14.787 38.473-5.97 15.69-14.486 23.087-25.536 22.179-11.051-0.907-19.562-7.39-25.536-19.465-6.573-12.073-12.698-25.045-18.367-38.925-5.678-13.885-11.202-27.471-16.579-40.741-5.382-13.281-10.157-25.355-14.339-36.217-4.178-10.867-7.762-19.618-10.755-26.263-4.775-9.653-12.688-15.082-23.739-16.289-11.05-1.207-21.81 0.451-32.258 4.976-10.453 4.526-19.114 11.622-25.982 21.277-6.869 9.66-7.919 20.221-3.139 31.686 4.182 12.073 8.957 25.654 14.334 40.741 5.373 15.091 11.056 30.483 17.026 46.174 5.975 15.69 11.643 31.082 17.025 46.174 5.378 15.086 10.151 28.064 14.335 38.925 8.962 22.935 22.553 40.142 40.769 51.607 18.225 11.47 37.334 17.502 57.348 18.105 20.007 0.604 39.127-3.926 57.348-13.58 18.22-9.654 31.511-24.143 39.871-43.455 6.572-15.69 13.295-32.137 20.159-49.34 6.873-17.197 13.445-33.953 19.721-50.247 6.266-16.295 12.096-31.99 17.468-47.078 5.372-15.091 9.851-28.064 13.436-38.93l0 0z" p-id="2147"></path></svg>