<?xml version="1.0" standalone="no"?><!DOCTYPE svg PUBLIC "-//W3C//DTD SVG 1.1//EN" "http://www.w3.org/Graphics/SVG/1.1/DTD/svg11.dtd"><svg t="1564647908390" class="icon" viewBox="0 0 1024 1024" version="1.1" xmlns="http://www.w3.org/2000/svg" p-id="2975" xmlns:xlink="http://www.w3.org/1999/xlink" width="200" height="200"><defs><style type="text/css"></style></defs><path d="M957.44 326.656c-9.216-54.272-52.224-94.208-106.496-101.376-112.64-14.336-226.304-20.48-338.944-20.48s-226.304 7.168-338.944 20.48c-54.272 7.168-97.28 47.104-106.496 101.376C56.32 388.096 51.2 450.56 51.2 512s5.12 123.904 15.36 185.344c9.216 54.272 52.224 94.208 106.496 101.376 112.64 14.336 226.304 20.48 338.944 20.48s226.304-7.168 338.944-20.48c54.272-7.168 97.28-47.104 106.496-101.376 10.24-61.44 15.36-123.904 15.36-185.344s-5.12-123.904-15.36-185.344zM600.064 547.84c-14.336 15.36-31.744 29.696-51.2 43.008-18.432 12.288-38.912 23.552-59.392 31.744-6.144 3.072-13.312 4.096-19.456 4.096-20.48 0-38.912-12.288-47.104-31.744-1.024-2.048-1.024-4.096-2.048-6.144-7.168-25.6-10.24-51.2-10.24-76.8s3.072-51.2 10.24-76.8c4.096-13.312 12.288-24.576 24.576-30.72 12.288-7.168 25.6-8.192 38.912-5.12 2.048 1.024 4.096 1.024 6.144 2.048 22.528 9.216 41.984 19.456 59.392 31.744 18.432 12.288 35.84 26.624 51.2 43.008 18.432 20.48 18.432 52.224-1.024 71.68z" p-id="2976"></path></svg>